   <svg display="none" xmlns="http://www.w3.org/2000/svg">
       <symbol id="searchIcon" viewBox="0 0 612.08 612.08">
        <g>
            <path d="M237.927,0C106.555,0,0.035,106.52,0.035,237.893c0,131.373,106.52,237.893,237.893,237.893
                c50.518,0,97.368-15.757,135.879-42.597l0.028-0.028l176.432,176.433c3.274,3.274,8.48,3.358,11.839,0l47.551-47.551
                c3.274-3.274,3.106-8.703-0.028-11.838L433.223,373.8c26.84-38.539,42.597-85.39,42.597-135.907C475.82,106.52,369.3,0,237.927,0z
                 M237.927,419.811c-100.475,0-181.918-81.443-181.918-181.918S137.453,55.975,237.927,55.975s181.918,81.443,181.918,181.918
                S338.402,419.811,237.927,419.811z"/>
        </g>
        </symbol>



       <symbol id="AccountIcon" viewBox="0 0 785.8159 1010">
            <g>
            <path d="M392.9692,0c135.251,0,244.8565,109.5234,244.8565,244.6914c0,135.312-109.6055,244.8145-244.8565,244.8145
            c-135.1269,0-244.7734-109.5025-244.7734-244.8145C148.1958,109.5234,257.8423,0,392.9692,0z"/>
            <path d="M785.8159,1010h-0.5762H0V876.8457c0-173.7793,109.3999-321.1318,261.9521-376.0586l131.0171,174.6016
            l130.9756-174.6016c152.5938,54.9268,261.8711,202.2793,261.8711,376.0586V1010z"/>
            </g>
        </symbol>
</svg>





